<?xml version="1.0" encoding="utf-8"?>
<!-- Svg Vector Icons : http://www.sfont.cn -->
<!DOCTYPE svg PUBLIC "-//W3C//DTD SVG 1.1//EN" "http://www.w3.org/Graphics/SVG/1.1/DTD/svg11.dtd">
<svg style="fill: #fff" version="1.1" xmlns="http://www.w3.org/2000/svg" xmlns:xlink="http://www.w3.org/1999/xlink" x="0px" y="0px" viewBox="0 0 1000 1000" enable-background="new 0 0 1000 1000" xml:space="preserve">
<metadata> Svg Vector Icons : http://www.sfont.cn </metadata>
<g><path d="M888,908.1V91.9c0-22.5-18.3-40.8-40.8-40.8H153.2c-22.5,0-40.8,18.3-40.8,40.8v816.3H10V949h143.2h693.9H990v-40.8H888z M602.2,91.9h143.1v200.3l-68.9-56.8l-1.7-1.7l-0.2,0.2l-0.2-0.2l-1.9,1.9l-70.3,58.9V91.9z M234.9,908.1h-61.2c-22.6,0-20.4-18.3-20.4-40.8V132.7c0-22.6-2.1-40.8,20.4-40.8h61.2V908.1z M826.7,908.1h-551V91.9h285.7v244.9h1.2c-0.7,1.5-1.2,3-1.2,4.7c0,2.8,1.4,5.3,3.2,7.5c0.5,1.8,5.9,5.1,7.3,5.6c12.9,5.3,23.6-0.6,23.6-0.6l79.2-66.5l80.6,66.5c0,0,17.8,12.4,26.2-0.3c2.7-4.1,6.1-15.6,4.6-22.8v-239h40.6c22.5,0,20.4,18.3,20.4,40.8v734.6C847.1,889.9,849.3,908.1,826.7,908.1z"/></g>
</svg>