<?xml version="1.0" standalone="no"?><!DOCTYPE svg PUBLIC "-//W3C//DTD SVG 1.1//EN" "http://www.w3.org/Graphics/SVG/1.1/DTD/svg11.dtd"><svg t="1521281322437" class="icon" style="" viewBox="0 0 1024 1024" version="1.1" xmlns="http://www.w3.org/2000/svg" p-id="1665" xmlns:xlink="http://www.w3.org/1999/xlink" width="64" height="64"><defs><style type="text/css"></style></defs><path d="M511.157307 958.61585c-246.952438 0-447.179692-200.215998-447.179692-447.190949 0-246.971881 200.227254-447.178669 447.179692-447.178669 246.973928 0 447.179692 200.206788 447.179692 447.178669C958.337 758.399853 758.130212 958.61585 511.157307 958.61585zM511.157307 104.899118c-224.523613 0-406.52783 182.01445-406.52783 406.525784 0 224.52566 182.004217 406.539086 406.52783 406.539086 224.523613 0 406.52783-182.013427 406.52783-406.539086C917.684114 286.913569 735.68092 104.899118 511.157307 104.899118zM531.483238 735.016283l-40.652885 0L490.830353 531.751856 287.567973 531.751856l0-40.652885 203.26238 0L490.830353 287.836591l40.652885 0 0 203.26238L734.747665 491.098971l0 40.652885L531.483238 531.751856 531.483238 735.016283z" p-id="1666" fill="#26a2ff"></path></svg>