<?xml version="1.0" standalone="no"?><!DOCTYPE svg PUBLIC "-//W3C//DTD SVG 1.1//EN" "http://www.w3.org/Graphics/SVG/1.1/DTD/svg11.dtd"><svg t="1520918330012" class="icon" style="" viewBox="0 0 1024 1024" version="1.1" xmlns="http://www.w3.org/2000/svg" p-id="6812" xmlns:xlink="http://www.w3.org/1999/xlink" width="128" height="128"><defs><style type="text/css"></style></defs><path d="M401.048025 844.855924c0 20.341281 16.643052 36.984333 36.984333 36.984333l147.936307 0c20.341281 0 36.984333-16.643052 36.984333-36.984333L622.952998 807.872614 401.048025 807.872614 401.048025 844.855924zM512 142.159744c-142.943596 0-258.888282 115.944686-258.888282 258.888282 0 88.021729 44.011376 165.503405 110.951975 212.288964l0 83.58365c0 20.341281 16.643052 36.984333 36.984333 36.984333l221.903949 0c20.341281 0 36.984333-16.643052 36.984333-36.984333l0-83.58365c66.941622-46.784536 110.951975-124.266212 110.951975-212.288964C770.888282 258.104429 654.943596 142.159744 512 142.159744zM617.588827 552.682561l-31.621185 22.005176 0 85.248569L438.031335 659.936307l0-85.063351L406.41015 552.866756c-49.743938-34.764781-79.33079-91.350544-79.33079-151.634536 0-101.890598 83.029018-184.92064 184.92064-184.92064s184.92064 83.029018 184.92064 184.92064C696.919617 461.332017 667.332764 517.91778 617.588827 552.682561z" p-id="6813" fill="#838383"></path></svg>