<?xml version="1.0" standalone="no"?><!DOCTYPE svg PUBLIC "-//W3C//DTD SVG 1.1//EN" "http://www.w3.org/Graphics/SVG/1.1/DTD/svg11.dtd"><svg t="1521362765196" class="icon" style="" viewBox="0 0 1024 1024" version="1.1" xmlns="http://www.w3.org/2000/svg" p-id="5626" xmlns:xlink="http://www.w3.org/1999/xlink" width="64" height="64"><defs><style type="text/css"></style></defs><path d="M794.624 258.048c-4.096 6.144-6.144 14.336-10.24 20.48-24.576 45.056-59.392 69.632-104.448 61.44-10.24-2.048-20.48-6.144-30.72-14.336-28.672-20.48-57.344-61.44-86.016-118.784-14.336-26.624-26.624-55.296-38.912-86.016-2.048-6.144-4.096-10.24-6.144-16.384-45.056 28.672-83.968 63.488-112.64 102.4-30.72 38.912-51.2 79.872-67.584 124.928-6.144 18.432-24.576 77.824-28.672 86.016-2.048 2.048-2.048 6.144-6.144 8.192-14.336 16.384-30.72 26.624-49.152 26.624-26.624 0-49.152-18.432-71.68-47.104-2.048-4.096-6.144-6.144-8.192-10.24-20.48 47.104-30.72 96.256-30.72 145.408-2.048 137.216 71.68 266.24 194.56 335.872 131.072 73.728 292.864 59.392 409.6-28.672 8.192-6.144 22.528-4.096 28.672 4.096 6.144 8.192 4.096 22.528-4.096 28.672-131.072 98.304-309.248 112.64-454.656 32.768-135.168-75.776-217.088-219.136-215.04-370.688 0-67.584 18.432-135.168 53.248-196.608l18.432-32.768 18.432 32.768c2.048 2.048 4.096 6.144 6.144 12.288 6.144 8.192 12.288 18.432 18.432 24.576 16.384 20.48 30.72 32.768 40.96 32.768 4.096 0 8.192-2.048 14.336-8.192 0 0 0-2.048 2.048-2.048 2.048-6.144 20.48-61.44 28.672-81.92 18.432-49.152 40.96-94.208 73.728-137.216 36.864-49.152 86.016-90.112 145.408-124.928l20.48-12.288 8.192 22.528c0 2.048 2.048 6.144 4.096 10.24 4.096 8.192 6.144 16.384 10.24 26.624 12.288 28.672 24.576 55.296 36.864 81.92 26.624 51.2 51.2 88.064 73.728 102.4 6.144 4.096 10.24 6.144 14.336 6.144 22.528 4.096 43.008-10.24 61.44-40.96 6.144-10.24 10.24-22.528 14.336-32.768 2.048-6.144 4.096-12.288 4.096-14.336l10.24-36.864 24.576 28.672c2.048 2.048 4.096 4.096 6.144 8.192 4.096 6.144 10.24 12.288 14.336 20.48 16.384 22.528 30.72 47.104 45.056 73.728 43.008 77.824 67.584 159.744 67.584 239.616 0 71.68-16.384 143.36-53.248 208.896-6.144 10.24-18.432 14.336-28.672 8.192-10.24-6.144-14.336-18.432-8.192-28.672 32.768-57.344 49.152-122.88 47.104-188.416 0-73.728-22.528-149.504-61.44-221.184-10.24-22.528-24.576-45.056-38.912-65.536z" p-id="5627" fill="#ffffff"></path></svg>