<?xml version="1.0" standalone="no"?><!DOCTYPE svg PUBLIC "-//W3C//DTD SVG 1.1//EN" "http://www.w3.org/Graphics/SVG/1.1/DTD/svg11.dtd"><svg t="1521362818734" class="icon" style="" viewBox="0 0 1024 1024" version="1.1" xmlns="http://www.w3.org/2000/svg" p-id="7030" xmlns:xlink="http://www.w3.org/1999/xlink" width="64" height="64"><defs><style type="text/css"></style></defs><path d="M747.08 489.45A212.73 212.73 0 1 0 534.27 276.7c0 45.56-0.34 182.31-0.35 183.68l-0.07 27.62 28.06 0.26c1.29-0.02 129.76 1.19 185.17 1.19zM590.78 276.7c0-86.67 70.12-157.18 156.3-157.18S903.39 190 903.39 276.7s-70.12 157.18-156.31 157.18c-39.22 0-115.39-0.61-156.58-1 0.1-42.66 0.28-123.22 0.28-156.18zM277.06 534.11a212.71 212.71 0 1 0 212.82 212.75c0-45.56 0.34-182.31 0.34-183.68l0.07-27.59-28.06-0.26c-1.28-0.02-129.75-1.22-185.17-1.22z m156.3 212.75c0 86.64-70.12 157.13-156.3 157.13S120.81 833.5 120.81 746.86s70.1-157.18 156.25-157.18c39.22 0 115.4 0.61 156.58 1-0.1 42.66-0.27 123.22-0.27 156.18zM489.88 276.7A212.81 212.81 0 0 0 126.4 126.46a212.74 212.74 0 0 0 150.66 363c55.42 0 183.88-1.2 185.18-1.21l28.06-0.26-0.07-27.59c-0.01-1.4-0.35-138.15-0.35-183.7zM277.06 433.88c-86.16 0-156.25-70.51-156.25-157.18s70.1-157.18 156.25-157.18S433.37 190 433.37 276.7c0 33 0.18 113.52 0.28 156.22-41.19 0.35-117.37 0.96-156.59 0.96zM747.08 534.11c-55.41 0-183.88 1.2-185.18 1.21l-28.06 0.26 0.07 27.59c0 1.38 0.35 138.13 0.35 183.68a212.84 212.84 0 1 0 212.82-212.74z m0 369.88c-86.19 0-156.3-70.49-156.3-157.13 0-33-0.18-113.52-0.28-156.22 41.19-0.35 117.36-1 156.58-1 86.19 0 156.31 70.51 156.31 157.18S833.27 904 747.08 904z" p-id="7031" fill="#ffffff"></path></svg>