<?xml version="1.0" standalone="no"?><!DOCTYPE svg PUBLIC "-//W3C//DTD SVG 1.1//EN" "http://www.w3.org/Graphics/SVG/1.1/DTD/svg11.dtd"><svg t="1521363339181" class="icon" style="" viewBox="0 0 1024 1024" version="1.1" xmlns="http://www.w3.org/2000/svg" p-id="7407" xmlns:xlink="http://www.w3.org/1999/xlink" width="64" height="64"><defs><style type="text/css"></style></defs><path d="M930.507676 617.741299l-69.37709-40.389896c3.889587-21.209044 6.441713-42.878576 6.441713-65.2327 0-22.360264-2.554172-44.029796-6.443759-65.24191l69.378114-40.392966c28.339442-16.495696 38.049594-53.036937 21.687952-81.609693l-59.250452-103.482863c-16.361643-28.577872-52.599985-38.368866-80.941474-21.8701l-70.090335 40.803311c-32.748868-28.110221-69.972655-51.079352-111.346971-65.849754l0-50.702776c0-32.996508-26.52819-59.748802-59.251475-59.748802L452.809923 64.023152c-32.723286 0-59.251475 26.752294-59.251475 59.748802l0 50.702776c-41.374316 14.771425-78.599126 37.739533-111.347994 65.849754l-70.089311-40.803311c-28.341488-16.498766-64.577784-6.707772-80.938404 21.8701L71.929216 324.874135c-16.360619 28.572756-6.65149 65.113997 21.687952 81.609693l69.378114 40.389896c-3.889587 21.214161-6.440689 42.883693-6.440689 65.243957 0 22.353101 2.551102 44.025703 6.440689 65.2327l-69.378114 40.389896c-28.338419 16.495696-38.048571 53.036937-21.687952 81.612763l59.253522 103.482863c16.360619 28.570709 52.597939 38.363749 80.938404 21.868053l70.088288-40.807405c32.748868 28.110221 69.973678 51.081399 111.349017 65.852824l0 50.707892c0 32.994462 26.52819 59.746756 59.251475 59.746756L571.315944 960.204022c32.723286 0 59.251475-26.752294 59.251475-59.746756l0-50.707892c41.37534-14.770402 78.599126-37.741579 111.347994-65.852824l70.089311 40.807405c28.341488 16.495696 64.579831 6.702656 80.941474-21.868053l59.250452-103.482863C968.55727 670.778236 958.848141 634.236995 930.507676 617.741299zM886.069581 695.350888l-29.625738 51.738361c-8.181333 14.290471-26.301016 19.185968-40.47176 10.933003l-82.310657-47.918359c-41.782615 47.521317-98.245581 81.610716-162.346505 94.733595l0 65.747423c0 16.495696-13.263072 29.872355-29.626761 29.872355l-59.251475 0c-16.363689 0-29.626761-13.375635-29.626761-29.872355l0-65.747423c-64.100924-13.122879-120.56389-47.211255-162.346505-94.733595l-82.311681 47.918359c-14.168698 8.252964-32.28838 3.357468-40.469714-10.933003l-29.624714-51.738361c-8.181333-14.287401-3.325745-32.556487 10.842952-40.805358l82.642209-48.113811c-9.844206-29.716812-15.739473-61.258179-15.739473-94.314039 0-33.063023 5.89629-64.605414 15.740496-94.325295l-82.644255-48.111764c-14.168698-8.247848-19.025309-26.52205-10.842952-40.805358l29.624714-51.742455c8.181333-14.285355 26.301016-19.182898 40.469714-10.937097l82.314751 47.924499c41.782615-47.524386 98.244558-81.614809 162.344458-94.737688l0-65.745377c0-16.498766 13.263072-29.867238 29.626761-29.867238l59.251475 0c16.363689 0 29.626761 13.369495 29.626761 29.867238l0 65.745377c64.0999 13.122879 120.562866 47.214325 162.344458 94.737688l82.312704-47.924499c14.169721-8.245801 32.289404-3.348258 40.47176 10.937097l29.625738 51.742455c8.18031 14.283308 3.325745 32.556487-10.842952 40.805358l-82.645279 48.113811c9.845229 29.719882 15.739473 61.260226 15.739473 94.323249 0 33.05586-5.89322 64.596204-15.739473 94.314039l82.645279 48.113811C889.395326 662.794401 894.249891 681.063487 886.069581 695.350888z" p-id="7408" fill="#ffffff"></path><path d="M511.706311 319.863005c-105.97359 0-191.882192 85.908602-191.882192 191.882192s85.908602 191.882192 191.882192 191.882192 191.882192-85.908602 191.882192-191.882192S617.679901 319.863005 511.706311 319.863005zM511.706311 639.666658c-70.64906 0-127.921461-57.272401-127.921461-127.921461s57.272401-127.921461 127.921461-127.921461 127.921461 57.272401 127.921461 127.921461S582.355371 639.666658 511.706311 639.666658z" p-id="7409" fill="#ffffff"></path></svg>