<?xml version="1.0" standalone="no"?><!DOCTYPE svg PUBLIC "-//W3C//DTD SVG 1.1//EN" "http://www.w3.org/Graphics/SVG/1.1/DTD/svg11.dtd"><svg t="1521363141959" class="icon" style="" viewBox="0 0 1029 1024" version="1.1" xmlns="http://www.w3.org/2000/svg" p-id="2975" xmlns:xlink="http://www.w3.org/1999/xlink" width="64.3125" height="64"><defs><style type="text/css"></style></defs><path d="M857.79 190.625l17.009 17.097-459.347 458.07-54.39 6-6.08-6 6.08-54.518 459.347-458.07 16.927 16.968 20.454 20.453zM727.238 877.609H272.91c-71.998 0-130.552-58.473-130.552-130.383V292.81c0-71.91 58.554-130.423 130.552-130.423h304.986c12.88 0 23.259 10.42 23.259 23.219 0 12.804-10.38 23.177-23.259 23.177H272.91c-46.436 0-84.156 37.72-84.156 84.068v454.335c0 46.347 37.72 84.07 84.156 84.07h454.328c46.354 0 84.076-37.723 84.076-84.07V447.518c0-12.885 10.371-23.266 23.17-23.266a23.22 23.22 0 0 1 23.266 23.266v299.668c-0.05 71.95-58.602 130.423-130.512 130.423z m0 0" p-id="2976" fill="#ffffff"></path></svg>