<?xml version="1.0" standalone="no"?><!DOCTYPE svg PUBLIC "-//W3C//DTD SVG 1.1//EN" "http://www.w3.org/Graphics/SVG/1.1/DTD/svg11.dtd"><svg t="1521363306091" class="icon" style="" viewBox="0 0 1024 1024" version="1.1" xmlns="http://www.w3.org/2000/svg" p-id="6627" xmlns:xlink="http://www.w3.org/1999/xlink" width="64" height="64"><defs><style type="text/css"></style></defs><path d="M113.777778 56.888889h56.888889v910.222222H113.777778z" fill="#ffffff" p-id="6628"></path><path d="M113.777778 56.888889h56.888889v910.222222H113.777778zM739.555556 56.888889h56.888888v170.666667h-56.888888z" fill="#ffffff" p-id="6629"></path><path d="M739.555556 56.888889h56.888888v170.666667h-56.888888zM739.555556 853.333333h56.888888v170.666667h-56.888888z" fill="#ffffff" p-id="6630"></path><path d="M739.555556 853.333333h56.888888v170.666667h-56.888888zM113.777778 56.888889h625.777778v56.888889H113.777778z" fill="#ffffff" p-id="6631"></path><path d="M113.777778 56.888889h625.777778v56.888889H113.777778zM113.777778 967.111111h625.777778v56.888889H113.777778z" fill="#ffffff" p-id="6632"></path><path d="M113.777778 967.111111h625.777778v56.888889H113.777778zM284.444444 512h568.888889v56.888889H284.444444z" fill="#ffffff" p-id="6633"></path><path d="M284.444444 512h568.888889v56.888889H284.444444z" fill="#ffffff" p-id="6634"></path><path d="M904.533333 563.2l17.066667-22.755556L722.488889 341.333333l-39.822222 39.822223 159.288889 159.288888-159.288889 164.977778 39.822222 39.822222z" fill="#ffffff" p-id="6635"></path></svg>