<?xml version="1.0" standalone="no"?><!DOCTYPE svg PUBLIC "-//W3C//DTD SVG 1.1//EN" "http://www.w3.org/Graphics/SVG/1.1/DTD/svg11.dtd"><svg t="1521363167695" class="icon" style="" viewBox="0 0 1024 1024" version="1.1" xmlns="http://www.w3.org/2000/svg" p-id="3738" xmlns:xlink="http://www.w3.org/1999/xlink" width="64" height="64"><defs><style type="text/css"></style></defs><path d="M844.8 665.6c-72.704 0-135.68 44.032-163.84 106.496l-344.064-175.616C350.72 571.392 358.4 542.72 358.4 512c0-44.544-16.384-85.504-43.52-116.736l354.304-181.248C685.568 296.448 757.76 358.4 844.8 358.4c98.816 0 179.2-80.384 179.2-179.2S943.616 0 844.8 0c-91.648 0-167.424 69.12-177.664 157.696l-394.24 201.216C245.76 342.528 213.504 332.8 179.2 332.8 80.384 332.8 0 413.184 0 512s80.384 179.2 179.2 179.2c49.664 0 94.72-20.48 126.976-53.248l360.448 184.32c-1.024 7.168-1.536 14.848-1.536 22.528 0 98.816 80.384 179.2 179.2 179.2s179.2-80.384 179.2-179.2-79.872-179.2-178.688-179.2z m0-614.4c70.656 0 128 57.344 128 128s-57.344 128-128 128-128-57.344-128-128 57.344-128 128-128zM179.2 640c-70.656 0-128-57.344-128-128s57.344-128 128-128 128 57.344 128 128-57.344 128-128 128z m665.6 332.8c-70.656 0-128-57.344-128-128s57.344-128 128-128 128 57.344 128 128-57.344 128-128 128z" p-id="3739" fill="#ffffff"></path></svg>