<?xml version="1.0" standalone="no"?><!DOCTYPE svg PUBLIC "-//W3C//DTD SVG 1.1//EN" "http://www.w3.org/Graphics/SVG/1.1/DTD/svg11.dtd"><svg t="1521363063125" class="icon" style="" viewBox="0 0 1024 1024" version="1.1" xmlns="http://www.w3.org/2000/svg" p-id="12280" xmlns:xlink="http://www.w3.org/1999/xlink" width="64" height="64"><defs><style type="text/css"></style></defs><path d="M330.29984 95.392c0-11.744 14.912-22.048 32-22.048H687.61184c17.024 0 32 10.304 32 22.048v504.544h0.64c0 17.312 14.08 31.36 31.36 31.36v0.64h120.384l-345.696 236-345.76-236h117.76v-0.672a31.328 31.328 0 0 0 31.328-31.328h0.64V95.392z m-270.72 529.952l-0.704 1.024 449.376 306.72 0.672-1.024a30.464 30.464 0 0 0 17.376 5.952 30.464 30.464 0 0 0 17.312-5.952l0.736 1.024 449.28-306.72-0.64-1.024a30.848 30.848 0 0 0 13.984-25.408 31.36 31.36 0 0 0-31.36-31.328v-0.672h-192V95.392c0-47.456-43.072-86.048-96-86.048H362.29984c-52.928 0-96 38.592-96 86.048v472.544H76.95584v0.672a31.36 31.36 0 0 0-31.36 31.328c0 10.752 5.76 19.744 14.016 25.408zM76.95584 1014.016v0.64H975.61184v-0.64a31.36 31.36 0 1 0 0-62.656v-0.672H76.92384v0.64a31.328 31.328 0 1 0 0 62.688" p-id="12281" fill="#ffffff"></path></svg>